<svg xmlns="http://www.w3.org/2000/svg" width="128" height="128" viewBox="0 0 128 128">
  <title>TOOLBOX</title>
  <g>
    <g>
      <path d="M76.706,65.875V76.752A6,6,0,0,1,72.09,82.59L64.04,84.5,55.991,82.59a6,6,0,0,1-4.616-5.838V65.875H10.25v45.75a6,6,0,0,0,6,6h95.5a6,6,0,0,0,6-6V65.875Z" fill="#4d5e80"/>
      <path d="M106.625,34.125h-8V20.375a2,2,0,0,0-2-2H31.375a2,2,0,0,0-2,2v13.75h-8V20.375a10.011,10.011,0,0,1,10-10h65.25a10.011,10.011,0,0,1,10,10Z" fill="#e1e6f0"/>
      <path d="M54.375,57.254H73.706a3,3,0,0,1,3,3v16.5A6,6,0,0,1,72.09,82.59L64.04,84.5,55.991,82.59a6,6,0,0,1-4.616-5.838v-16.5A3,3,0,0,1,54.375,57.254Z" fill="#ff7f40"/>
      <polygon points="59.375 75.17 59.375 65.254 68.706 65.254 68.706 75.17 64.04 76.276 59.375 75.17" fill="#f25a3c"/>
      <path d="M1.831,43.125V65.872H51.375V60.254a3,3,0,0,1,3-3H73.706a3,3,0,0,1,3,3v5.618H126.25V43.125a9,9,0,0,0-9-9H10.831A9,9,0,0,0,1.831,43.125Z" fill="#3d4566"/>
      <path d="M94.312,66h12.313a0,0,0,0,1,0,0V84.875a4,4,0,0,1-4,4H98.312a4,4,0,0,1-4-4V66A0,0,0,0,1,94.312,66Z" fill="#ffbe40"/>
      <path d="M94.312,77.438h12.313a0,0,0,0,1,0,0v7.437a4,4,0,0,1-4,4H98.312a4,4,0,0,1-4-4V77.438a0,0,0,0,1,0,0Z" fill="#ffdf40"/>
      <path d="M25.375,66h4.312a4,4,0,0,1,4,4V88.875a0,0,0,0,1,0,0H21.375a0,0,0,0,1,0,0V70A4,4,0,0,1,25.375,66Z" transform="translate(55.062 154.875) rotate(180)" fill="#ffbe40"/>
      <path d="M25.375,77.438h4.312a4,4,0,0,1,4,4v7.438a0,0,0,0,1,0,0H21.375a0,0,0,0,1,0,0V81.437A4,4,0,0,1,25.375,77.438Z" transform="translate(55.062 166.313) rotate(180)" fill="#ffdf40"/>
    </g>
    <g>
      <path d="M44.04,20.125h7.335a1.75,1.75,0,0,0,0-3.5H44.04a1.75,1.75,0,0,0,0,3.5Z"/>
      <path d="M68.706,63.5H59.375a1.751,1.751,0,0,0-1.75,1.75V75.17a1.75,1.75,0,0,0,1.346,1.7l4.666,1.106a1.756,1.756,0,0,0,.807,0l4.665-1.106a1.751,1.751,0,0,0,1.347-1.7V65.254A1.75,1.75,0,0,0,68.706,63.5Zm-1.75,10.283-2.916.691-2.915-.691V67h5.831Z"/>
      <path d="M117.25,32.375h-8.875v-12a11.764,11.764,0,0,0-11.75-11.75H31.375a11.763,11.763,0,0,0-11.75,11.75v12H10.831A10.762,10.762,0,0,0,.081,43.125V65.872a1.751,1.751,0,0,0,1.75,1.75H8.5v44a7.759,7.759,0,0,0,7.75,7.75h95.5a7.759,7.759,0,0,0,7.75-7.75v-44h6.75a1.75,1.75,0,0,0,1.75-1.75V43.125A10.762,10.762,0,0,0,117.25,32.375Zm-94.125-12a8.259,8.259,0,0,1,8.25-8.25h65.25a8.259,8.259,0,0,1,8.25,8.25v12h-4.5v-12a3.755,3.755,0,0,0-3.75-3.75H64.04a1.75,1.75,0,0,0,0,3.5H96.625a.253.253,0,0,1,.25.25v12H31.125v-12a.253.253,0,0,1,.25-.25,1.75,1.75,0,0,0,0-3.5,3.754,3.754,0,0,0-3.75,3.75v12h-4.5ZM116,111.625a4.255,4.255,0,0,1-4.25,4.25H16.25a4.255,4.255,0,0,1-4.25-4.25v-44h7.625v17.25a5.757,5.757,0,0,0,5.75,5.75h4.312a5.757,5.757,0,0,0,5.75-5.75V67.625H49.625v9.127a7.721,7.721,0,0,0,5.962,7.54l8.05,1.909a1.756,1.756,0,0,0,.807,0l5.66-1.342a1.75,1.75,0,1,0-.806-3.405L64.04,82.7l-7.646-1.813a4.235,4.235,0,0,1-3.269-4.135v-16.5A1.251,1.251,0,0,1,54.375,59H73.706a1.252,1.252,0,0,1,1.25,1.25v16.5a1.75,1.75,0,0,0,3.5,0V67.625H92.562v17.25a5.757,5.757,0,0,0,5.75,5.75h4.313a5.757,5.757,0,0,0,5.75-5.75V67.625H116ZM23.125,79.188h8.812v5.687a2.252,2.252,0,0,1-2.25,2.25H25.375a2.252,2.252,0,0,1-2.25-2.25Zm0-3.5V67.75h8.812v7.938Zm72.937,3.5h8.813v5.687a2.253,2.253,0,0,1-2.25,2.25H98.312a2.253,2.253,0,0,1-2.25-2.25Zm0-3.5V67.75h8.813v7.938ZM124.5,64.122H78.456V60.254a4.756,4.756,0,0,0-4.75-4.75H54.375a4.756,4.756,0,0,0-4.75,4.75v3.868H3.581v-21a7.258,7.258,0,0,1,7.25-7.25H117.25a7.258,7.258,0,0,1,7.25,7.25Z"/>
    </g>
  </g>
</svg>
